<svg xmlns="http://www.w3.org/2000/svg" xmlns:xlink="http://www.w3.org/1999/xlink" viewBox="0,0,256,256" width="100px" height="100px" fill-rule="nonzero"><g fill="none" fill-rule="nonzero" stroke="none" stroke-width="1" stroke-linecap="butt" stroke-linejoin="miter" stroke-miterlimit="10" stroke-dasharray="" stroke-dashoffset="0" font-family="none" font-weight="none" font-size="none" text-anchor="none" style="mix-blend-mode: normal"><g transform="scale(2.56,2.56)"><path d="M61.741,14.709c-7.289,-4.165 -16.224,-4.219 -23.563,-0.142l-22.134,12.298l34.956,19.975v42.049l21.656,-12.031c7.619,-4.233 12.344,-12.264 12.344,-20.98v-27.878zM48.052,35.761c3.141,-0.976 6.538,-0.695 9.476,0.785l6.472,3.26v6.537c0,3.622 -1.439,7.096 -4,9.657v-13.806zM76,53.026c0,6.228 -3.301,12.112 -8.614,15.359l-7.386,4.514v-4.687l5.3,-3.239c4.133,-2.525 6.7,-7.103 6.7,-11.946v-17.879l-14.912,-8.698c-4.37,-2.549 -9.792,-2.539 -14.152,0.025l-5.807,3.416l-4.151,-2.198l7.931,-4.665c5.607,-3.297 12.58,-3.309 18.195,-0.033l16.896,9.857z" fill="#2d74bd"></path><path d="M51,89.889c-0.176,0 -0.351,-0.046 -0.507,-0.138c-0.305,-0.18 -0.493,-0.508 -0.493,-0.862v-41.469l-34.452,-19.688c-0.313,-0.179 -0.506,-0.514 -0.504,-0.874c0.002,-0.361 0.199,-0.693 0.515,-0.868l22.135,-12.297c7.595,-4.22 17,-4.165 24.544,0.147l23.259,13.291c0.311,0.179 0.503,0.511 0.503,0.869v27.878c0,9.073 -4.928,17.447 -12.859,21.854l-21.655,12.03c-0.151,0.085 -0.319,0.127 -0.486,0.127zM18.081,26.877l33.415,19.095c0.312,0.177 0.504,0.509 0.504,0.868v40.35l20.17,-11.205c7.297,-4.055 11.83,-11.759 11.83,-20.107v-27.298l-22.755,-13.003v0c-6.938,-3.967 -15.592,-4.017 -22.581,-0.136z" fill-opacity="0.01176" fill="#1f212b"></path><path d="M14,30.303v10.251l23,13.143v4.607l-12.67,-7.24l-7.777,4.949l20.447,11.684v4.607l-22.784,-13.02c0.99,7.343 5.339,13.891 11.877,17.626l20.907,11.947v-39.697z" fill="#2d74bd"></path><path d="M47,89.857c-0.171,0 -0.343,-0.044 -0.496,-0.132l-20.907,-11.947c-6.713,-3.835 -11.338,-10.698 -12.372,-18.36c-0.051,-0.377 0.117,-0.75 0.433,-0.963c0.313,-0.213 0.724,-0.228 1.055,-0.039l21.287,12.164v-2.304l-19.943,-11.395c-0.305,-0.174 -0.495,-0.494 -0.504,-0.845c-0.008,-0.35 0.168,-0.679 0.463,-0.867l7.777,-4.949c0.314,-0.198 0.711,-0.209 1.033,-0.024l11.174,6.384v-2.304l-22.496,-12.854c-0.312,-0.178 -0.504,-0.51 -0.504,-0.868v-10.25c0,-0.356 0.189,-0.686 0.498,-0.865c0.308,-0.179 0.688,-0.18 0.998,-0.003l33,18.856c0.312,0.178 0.504,0.51 0.504,0.868v39.697c0,0.356 -0.189,0.686 -0.498,0.865c-0.155,0.091 -0.328,0.135 -0.502,0.135zM15.585,61.218c1.434,6.203 5.438,11.645 11.004,14.824l19.411,11.092v-37.394l-31,-17.713v7.946l22.496,12.854c0.312,0.179 0.504,0.511 0.504,0.869v4.607c0,0.356 -0.189,0.686 -0.498,0.865c-0.308,0.178 -0.688,0.181 -0.998,0.003l-12.146,-6.94l-5.87,3.735l19.009,10.861c0.311,0.179 0.503,0.511 0.503,0.869v4.607c0,0.356 -0.189,0.686 -0.498,0.865c-0.308,0.179 -0.688,0.18 -0.998,0.003z" fill-opacity="0.01176" fill="#1f212b"></path><path d="M60,57c-0.129,0 -0.259,-0.024 -0.383,-0.076c-0.373,-0.154 -0.617,-0.52 -0.617,-0.924v-13.208l-11.422,-6.15c-0.355,-0.191 -0.561,-0.576 -0.521,-0.978c0.038,-0.4 0.313,-0.739 0.698,-0.858c3.407,-1.057 7.037,-0.758 10.223,0.847l6.473,3.26c0.337,0.17 0.55,0.516 0.55,0.894v6.537c0,3.914 -1.524,7.595 -4.293,10.364c-0.192,0.19 -0.448,0.292 -0.708,0.292zM51.004,36.215l9.47,5.099c0.324,0.174 0.526,0.512 0.526,0.88v10.984c1.302,-2.021 2,-4.375 2,-6.836v-5.921l-5.923,-2.982c-1.904,-0.96 -3.995,-1.373 -6.073,-1.224z" fill-opacity="0.01176" fill="#1f212b"></path><path d="M60,73.899c-0.169,0 -0.337,-0.043 -0.489,-0.128c-0.316,-0.176 -0.511,-0.51 -0.511,-0.872v-4.688c0,-0.349 0.182,-0.672 0.479,-0.854l5.3,-3.239c3.837,-2.344 6.221,-6.595 6.221,-11.092v-17.303l-14.416,-8.408c-4.057,-2.367 -9.093,-2.358 -13.142,0.023l-5.807,3.416c-0.299,0.175 -0.668,0.184 -0.975,0.021l-4.152,-2.198c-0.32,-0.17 -0.523,-0.499 -0.532,-0.861c-0.008,-0.362 0.181,-0.701 0.493,-0.885l7.932,-4.665c5.918,-3.479 13.278,-3.492 19.206,-0.035l16.896,9.856c0.309,0.18 0.497,0.509 0.497,0.865v20.175c0,6.573 -3.484,12.785 -9.093,16.213l-7.386,4.514c-0.16,0.097 -0.34,0.145 -0.521,0.145zM61,68.772v2.344l5.864,-3.584c5.019,-3.066 8.136,-8.625 8.136,-14.506v-19.6l-16.4,-9.566c-5.303,-3.095 -11.888,-3.083 -17.185,0.031l-6.388,3.757l2.076,1.099l5.325,-3.133c4.673,-2.746 10.482,-2.756 15.163,-0.027l14.912,8.698c0.309,0.179 0.497,0.508 0.497,0.863v17.878c0,5.189 -2.751,10.094 -7.179,12.8z" fill-opacity="0.01176" fill="#1f212b"></path><path d="M43.5,83c-0.084,0 -0.167,-0.021 -0.243,-0.063l-9,-5c-0.241,-0.135 -0.328,-0.438 -0.194,-0.681c0.135,-0.242 0.44,-0.325 0.681,-0.194l8.256,4.588v-11.15c0,-0.276 0.224,-0.5 0.5,-0.5c0.276,0 0.5,0.224 0.5,0.5v12c0,0.177 -0.094,0.341 -0.246,0.431c-0.078,0.046 -0.166,0.069 -0.254,0.069z" fill-opacity="0.01176" fill="#1f212b"></path><path d="M43.5,68c-0.276,0 -0.5,-0.224 -0.5,-0.5v-6c0,-0.276 0.224,-0.5 0.5,-0.5c0.276,0 0.5,0.224 0.5,0.5v6c0,0.276 -0.224,0.5 -0.5,0.5z" fill-opacity="0.01176" fill="#1f212b"></path><path d="M70.5,24c-0.082,0 -0.164,-0.02 -0.241,-0.062l-12.644,-6.954c-4.461,-2.454 -9.846,-2.561 -14.401,-0.282c-0.244,0.123 -0.547,0.023 -0.671,-0.224c-0.123,-0.247 -0.023,-0.547 0.224,-0.671c4.85,-2.425 10.579,-2.312 15.331,0.3l12.644,6.954c0.242,0.134 0.33,0.438 0.197,0.68c-0.092,0.165 -0.263,0.259 -0.439,0.259z" fill-opacity="0.01176" fill="#1f212b"></path><path d="M78.5,29c-0.088,0 -0.177,-0.022 -0.257,-0.071l-5,-3c-0.237,-0.142 -0.314,-0.449 -0.172,-0.686c0.144,-0.237 0.453,-0.314 0.686,-0.172l5,3c0.237,0.142 0.314,0.449 0.172,0.686c-0.094,0.156 -0.26,0.243 -0.429,0.243z" fill-opacity="0.01176" fill="#1f212b"></path></g></g></svg>